<svg width="191" height="39" viewBox="0 0 191 39" fill="none" xmlns="http://www.w3.org/2000/svg">
<path d="M6.07 21.72V19.46C12.7536 18.5423 19.4937 18.0979 26.24 18.13C26.24 18.73 26.24 19.34 26.18 19.95C28.0976 19.099 30.1128 18.4877 32.18 18.13C30.8625 14.722 28.4618 11.8412 25.3471 9.93087C22.2324 8.02052 18.5764 7.1864 14.9414 7.55683C11.3064 7.92727 7.89379 9.48172 5.22852 11.9811C2.56325 14.4804 0.792968 17.7863 0.19 21.39L6.07 21.72Z" fill="#FDC305"/>
<path d="M27.24 25.23C26.08 26.51 25.85 26.43 25.85 28.68C25.85 29.59 25.85 33.58 25.85 37.86C28.1425 36.346 30.0245 34.2879 31.328 31.8694C32.6315 29.4509 33.3158 26.7474 33.32 24C33.3068 22.9591 33.1997 21.9216 33 20.9C30.9282 22.1295 28.9968 23.5814 27.24 25.23Z" fill="#FDC305"/>
<path d="M6.36 26.72C6.36 26.72 2.57 25.28 1.17 24.89C0.787067 24.7693 0.396097 24.6757 0 24.61C0.108395 27.496 0.965588 30.3041 2.48739 32.7586C4.00919 35.2131 6.14326 37.2296 8.68 38.61L6.36 26.72Z" fill="#FDC305"/>
<path d="M26.29 18.12C26.3307 12.5986 25.862 7.08528 24.89 1.65C24.89 1.65 24.75 0.36 24 1.41C23.4109 2.65814 23.0067 3.98539 22.8 5.35C18.5418 5.07577 14.2675 5.18957 10.03 5.69C9.24 3 7.85 1.75 7.18 2C6.51 2.25 6.46 5.31 6.46 5.31L6.13 19.41C12.8113 18.506 19.548 18.0749 26.29 18.12Z" fill="#F06351"/>
<path d="M12.41 15C12.41 14.91 13.41 15.68 13.82 15.92C14.23 16.16 14.43 16.34 14.43 16.51C14.43 16.68 14.16 16.85 13.8 16.85C13.44 16.85 12.89 16.73 12.8 16.58H14.03C13.4207 16.1294 12.8757 15.5978 12.41 15Z" fill="black"/>
<path d="M19.89 15.11L18.8 16.44C18.8 16.5 18.63 16.79 18.98 16.74C19.3942 16.6783 19.8023 16.5812 20.2 16.45C20.31 16.45 20.27 16.26 20.09 16.28C19.91 16.3 19.4 16.33 19.09 16.39L19.93 15.13C19.93 15.13 20 15 19.89 15.11Z" fill="black"/>
<path d="M16.75 21.2C17.2135 20.9958 17.5967 20.6443 17.84 20.2C18.12 19.55 17.84 19.29 17.4 19.2C16.7979 19.0902 16.1765 19.2116 15.66 19.54C15.27 19.9 15.32 20.26 15.61 20.54C15.9613 20.8062 16.3442 21.0279 16.75 21.2Z" fill="black"/>
<path d="M16.35 22.45C16.2379 22.6785 16.0816 22.8825 15.89 23.05C15.6052 23.2791 15.2551 23.4122 14.89 23.43C14.3638 23.472 13.8406 23.3189 13.42 23C13.2222 22.8808 13.0436 22.7324 12.89 22.56C12.7895 22.4491 12.6669 22.3605 12.53 22.3C12.53 22.3 13.28 26.4 15.1 27.05C16.92 27.7 17.24 26.3 17.3 25.92C17.3601 24.7851 17.0742 23.6588 16.48 22.69C16.46 22.38 16.45 22.58 16.35 22.45Z" fill="#F06351"/>
<path d="M14.71 23.59C14.2453 23.5247 13.7989 23.3651 13.3982 23.1209C12.9975 22.8767 12.651 22.5531 12.38 22.17C12.3667 22.157 12.3561 22.1414 12.3489 22.1242C12.3417 22.1071 12.338 22.0886 12.338 22.07C12.338 22.0514 12.3417 22.0329 12.3489 22.0158C12.3561 21.9986 12.3667 21.983 12.38 21.97C12.393 21.9567 12.4086 21.9461 12.4258 21.9389C12.4429 21.9317 12.4614 21.928 12.48 21.928C12.4986 21.928 12.5171 21.9317 12.5342 21.9389C12.5514 21.9461 12.567 21.9567 12.58 21.97C13.0848 22.6642 13.843 23.1313 14.69 23.27C15.0217 23.245 15.3426 23.1413 15.6261 22.9674C15.9096 22.7934 16.1475 22.5544 16.32 22.27L16.46 22.08L16.56 22.29C16.56 22.29 16.93 23.05 17.56 23.09C18.19 23.13 18.61 22.68 19.17 21.81C19.183 21.7967 19.1986 21.7861 19.2158 21.7789C19.2329 21.7717 19.2514 21.768 19.27 21.768C19.2886 21.768 19.3071 21.7717 19.3242 21.7789C19.3414 21.7861 19.357 21.7967 19.37 21.81C19.4023 21.8306 19.4255 21.8629 19.4348 21.9C19.4441 21.9372 19.4388 21.9766 19.42 22.01C18.78 23.01 18.15 23.45 17.54 23.41C17.308 23.3763 17.0867 23.2904 16.8927 23.1587C16.6987 23.0271 16.5371 22.8531 16.42 22.65C16.2233 22.9245 15.9676 23.1514 15.6717 23.3141C15.3758 23.4767 15.0471 23.571 14.71 23.59Z" fill="black"/>
<path d="M26.24 19.92C24.4445 21.5437 22.7512 23.277 21.17 25.11C19.5986 26.9361 17.8238 28.5768 15.88 30C15.66 29.47 14.26 28.49 14.26 28.49C14.26 28.49 11.13 26.35 9.08 24.67C7.97414 23.7373 6.9287 22.7353 5.95 21.67L3.95 21.56C6.84018 25.7655 11.0702 28.8676 15.95 30.36C16.81 30.22 19.22 28.5 21.02 27.1C23.1389 25.2819 25.124 23.3134 26.96 21.21C27.4625 20.621 27.8493 19.9425 28.1 19.21C27 19.6 26.24 19.92 26.24 19.92Z" fill="#F06351"/>
<path d="M91.2645 30.346C90.3696 29.0847 89.9253 27.5725 90 26.0418V19.6623C89.8916 18.1151 90.3081 16.5761 91.1855 15.2812C92.0548 14.282 93.3983 13.8209 95.374 13.8209C97.3498 13.8209 98.6143 14.282 99.4045 15.1275C100.263 16.1984 100.685 17.5392 100.59 18.8937V20.4309H96.7175V18.6631C96.7488 18.1403 96.6681 17.6168 96.4805 17.1259C96.3802 16.9277 96.2212 16.7633 96.024 16.6537C95.8269 16.5441 95.6005 16.4944 95.374 16.511C94.8208 16.511 94.4257 16.6647 94.2676 17.049C94.0888 17.5951 94.0086 18.1672 94.0305 18.74V26.9641C93.9888 27.5198 94.0978 28.0763 94.3466 28.5782C94.5047 28.9625 94.8999 29.1162 95.4531 29.1162C96.0063 29.1162 96.3224 28.9625 96.4805 28.5782C96.6601 28.0587 96.7405 27.5117 96.7175 26.9641V25.1194H100.59V26.6567C100.67 28.0332 100.251 29.3935 99.4045 30.4997C98.6143 31.422 97.2707 31.8832 95.374 31.8832C93.4773 31.8063 92.0548 31.3452 91.2645 30.346Z" fill="#111111"/>
<path d="M105.253 14.0527H109.757L113.077 31.577H109.441L108.809 27.8877H106.201L105.569 31.577H101.854L105.253 14.0527ZM108.493 25.5818L107.545 18.7412L106.596 25.5818H108.493Z" fill="#111111"/>
<path d="M115.843 16.9734H113.156V14.0527H122.56V16.8965H119.873V31.577H115.843V16.9734Z" fill="#111111"/>
<path d="M136.707 14.0527V15.8974H132.202V21.6619H135.837V23.4297H132.202V29.8861H136.707V31.6539H129.673V14.0527H136.707Z" fill="#111111"/>
<path d="M138.761 14.0527H140.5L145.637 25.6587V14.0527H147.692V31.577H146.111L140.895 19.5867V31.577H138.761V14.0527Z" fill="#111111"/>
<path d="M150.063 14.0527H157.017V15.8974H152.513V21.6619H156.148V23.4297H152.513V29.8861H157.017V31.6539H150.063V14.0527Z" fill="#111111"/>
<path d="M162.707 14.0528C164.137 13.9568 165.559 14.3362 166.738 15.1289C167.607 15.8206 168.002 17.0504 168.002 18.6645C168.002 20.8935 167.291 22.277 165.79 22.7381L168.318 31.5003H165.869L163.498 23.2762H161.522V31.5003H158.993V14.0528H162.707ZM162.549 21.5852C163.364 21.6505 164.176 21.4326 164.841 20.9703C165.315 20.586 165.552 19.8174 165.552 18.6645C165.574 18.0918 165.494 17.5197 165.315 16.9736C165.137 16.5817 164.832 16.2576 164.446 16.0512C163.902 15.81 163.304 15.7043 162.707 15.7438H161.601V21.5084H162.549V21.5852Z" fill="#111111"/>
<path d="M171.164 30.2703C170.342 28.9264 169.956 27.3727 170.057 25.8123V19.9709C170.038 18.857 170.17 17.7456 170.452 16.6659C170.717 15.859 171.244 15.1576 171.954 14.6675C172.836 14.1595 173.854 13.9186 174.878 13.9757C176.538 13.9757 177.723 14.36 178.434 15.2055C179.252 16.3219 179.644 17.6813 179.541 19.0485V19.6634H177.17V19.1254C177.173 18.4817 177.12 17.8389 177.012 17.2039C176.945 16.8026 176.718 16.4434 176.379 16.2047C175.935 15.9211 175.408 15.7862 174.878 15.8204C174.311 15.7851 173.75 15.9487 173.297 16.2815C173.111 16.4339 172.959 16.6215 172.851 16.833C172.742 17.0445 172.679 17.2753 172.665 17.5113C172.561 18.1985 172.508 18.892 172.507 19.5866V26.1198C172.449 27.1151 172.61 28.111 172.981 29.0405C173.297 29.6554 173.93 29.8859 174.878 29.8859C175.252 29.9313 175.632 29.868 175.97 29.7039C176.307 29.5397 176.587 29.2822 176.775 28.9636C177.192 27.9917 177.381 26.9413 177.328 25.8892V24.6594H175.036V22.8916H179.62V31.5769H178.039L177.802 29.5785C177.595 30.2482 177.163 30.8314 176.576 31.2353C175.989 31.6391 175.28 31.8406 174.562 31.8075C173.909 31.8448 173.256 31.7239 172.663 31.4556C172.07 31.1873 171.555 30.78 171.164 30.2703Z" fill="#111111"/>
<path d="M184.678 25.4293L180.805 14.1307H183.176L185.942 22.5854L188.629 14.1307H191L187.128 25.4293V31.5781H184.757V25.4293H184.678Z" fill="#111111"/>
</svg>
